<?xml version="1.0" standalone="no"?>
<!DOCTYPE svg PUBLIC "-//W3C//DTD SVG 20010904//EN"
 "http://www.w3.org/TR/2001/REC-SVG-20010904/DTD/svg10.dtd">
<svg version="1.0" xmlns="http://www.w3.org/2000/svg"
 width="800.000000pt" height="800.000000pt" viewBox="0 0 800.000000 800.000000"
 preserveAspectRatio="xMidYMid meet">
<metadata>
Created by potrace 1.14, written by Peter Selinger 2001-2017
</metadata>
<g transform="translate(0.000000,800.000000) scale(0.100000,-0.100000)"
fill="#000000" stroke="none">
<path d="M4108 7280 c-219 -41 -621 -164 -908 -277 -319 -126 -730 -332 -818
-409 -62 -56 -16 -41 201 62 365 174 665 295 956 386 246 76 700 188 766 188
35 0 40 -33 27 -166 -16 -153 -15 -199 4 -215 14 -11 18 -11 29 4 15 20 52
194 62 285 3 34 11 63 17 63 31 3 59 -7 146 -53 378 -203 699 -447 1031 -785
143 -146 297 -329 285 -340 -2 -2 -48 30 -102 70 -188 141 -449 306 -658 416
-253 133 -652 287 -687 266 -25 -16 0 -34 104 -74 272 -108 642 -313 1032
-574 441 -294 493 -346 480 -471 -2 -23 -7 -92 -10 -154 -11 -238 -65 -582
-136 -872 -41 -165 -182 -606 -203 -636 -10 -13 -19 -11 -69 19 -87 52 -238
125 -272 131 -17 2 -37 1 -44 -3 -26 -17 0 -48 77 -91 90 -51 188 -114 220
-143 46 -42 28 -64 -156 -186 -92 -62 -127 -91 -139 -117 -19 -38 -10 -66 21
-72 37 -8 321 189 389 268 90 106 249 597 316 980 51 285 65 443 65 735 l1
280 -26 56 c-120 255 -483 666 -844 954 -251 200 -635 428 -805 479 -71 21
-226 19 -352 -4z"/>
<path d="M3610 6814 c-376 -37 -856 -149 -1082 -252 -74 -34 -95 -58 -74 -88
16 -21 -3 -26 257 65 147 51 302 90 582 146 278 57 404 72 714 86 247 11 285
17 262 45 -15 19 -469 17 -659 -2z"/>
<path d="M4175 6669 c-148 -79 -485 -391 -712 -659 -329 -389 -594 -826 -664
-1095 -23 -87 -25 -155 -5 -155 14 0 26 28 83 185 94 262 376 685 690 1038
154 172 403 410 556 531 135 107 153 128 141 160 -8 22 -41 20 -89 -5z"/>
<path d="M4374 6646 c-4 -10 11 -52 35 -99 243 -489 417 -966 597 -1630 71
-260 101 -322 150 -303 35 14 35 53 -1 204 -120 499 -247 868 -440 1283 -203
434 -315 613 -341 545z"/>
<path d="M2292 6495 c-53 -67 -191 -586 -262 -984 -47 -267 -97 -729 -98 -922
-1 -120 1 -139 22 -184 49 -106 266 -353 496 -562 123 -112 161 -136 182 -115
26 26 -8 71 -191 257 -103 105 -229 235 -281 289 l-94 99 42 37 c51 46 193
106 400 170 84 26 156 50 159 53 3 3 2 11 -2 18 -22 35 -377 -44 -579 -128
-32 -13 -61 -21 -65 -18 -9 10 -2 349 10 490 27 325 73 563 215 1122 46 183
84 346 84 362 0 40 -14 46 -38 16z"/>
<path d="M2360 6405 c-28 -33 10 -314 106 -795 94 -470 187 -838 216 -856 19
-12 2 117 -41 311 -43 194 -137 756 -172 1025 -28 219 -36 260 -59 298 -22 36
-32 39 -50 17z"/>
<path d="M5943 5649 c-119 -226 -422 -764 -500 -887 -107 -169 -155 -270 -157
-330 -1 -56 15 -64 52 -24 34 38 275 439 381 637 117 219 264 557 286 663 12
58 -13 35 -62 -59z"/>
<path d="M2847 4704 c-10 -3 -17 -13 -15 -22 3 -14 23 -18 123 -24 66 -4 208
-14 316 -23 264 -20 259 -20 259 9 0 29 -10 33 -117 46 -88 11 -538 22 -566
14z"/>
<path d="M4760 4616 c-299 -84 -379 -123 -441 -213 -17 -24 -36 -43 -43 -43
-7 0 -33 15 -57 34 -70 55 -204 116 -311 143 -96 24 -134 25 -126 2 2 -7 35
-24 73 -39 104 -40 221 -102 303 -159 39 -28 72 -54 72 -57 0 -4 -16 -50 -35
-103 -20 -53 -38 -101 -40 -107 -2 -6 -50 35 -107 91 -65 64 -131 118 -178
145 -72 42 -227 99 -273 101 -12 0 -31 4 -41 8 -15 6 -3 16 63 50 45 23 81 49
81 57 0 22 -71 17 -158 -12 -94 -31 -315 -138 -397 -191 -211 -138 -336 -341
-375 -606 -8 -48 -18 -91 -24 -95 -6 -4 -30 -7 -53 -8 -34 -1 -56 -12 -115
-55 -198 -144 -304 -248 -347 -339 -23 -48 -26 -67 -25 -150 2 -186 88 -343
265 -486 178 -144 390 -227 703 -274 209 -31 231 -48 230 -174 -1 -120 -28
-187 -259 -640 -112 -221 -211 -428 -220 -460 -35 -121 -7 -259 65 -319 60
-51 106 -57 429 -57 163 0 357 -5 431 -11 l135 -12 183 63 c101 34 186 59 190
55 3 -3 18 -27 32 -53 l25 -47 105 -8 c58 -4 287 -6 510 -4 438 5 463 8 572
63 95 48 280 264 347 404 23 49 26 67 26 165 0 102 -2 115 -31 175 -46 96
-206 362 -389 645 -188 290 -264 424 -308 538 -30 79 -31 87 -31 237 0 109 9
219 28 370 49 376 37 657 -40 924 -49 173 -130 311 -226 387 -90 71 -142 86
-218 65z m215 -162 c121 -121 192 -317 226 -630 12 -117 6 -382 -11 -468 -16
-78 -50 -420 -50 -499 1 -210 92 -410 409 -890 185 -282 331 -526 356 -598 23
-65 19 -145 -10 -208 -33 -70 -115 -185 -124 -174 -4 4 -16 35 -26 68 -25 76
-171 367 -255 505 -34 58 -127 202 -205 321 -160 242 -244 382 -281 465 -32
72 -71 207 -85 293 -17 108 -11 316 15 519 82 626 43 1020 -121 1221 -32 38
-129 111 -166 124 -24 8 2 18 94 36 93 18 94 18 133 -3 22 -12 67 -48 101 -82z
m-320 -48 c116 -69 191 -226 227 -474 7 -48 12 -193 13 -322 0 -212 -3 -254
-29 -425 -61 -388 -33 -628 108 -929 53 -114 103 -198 291 -491 165 -257 181
-283 314 -518 115 -201 136 -262 120 -338 -16 -73 -62 -128 -143 -169 l-69
-35 -221 -3 c-331 -4 -770 10 -789 27 -9 7 -35 47 -57 89 -57 106 -147 238
-182 267 -36 31 -86 33 -120 5 -34 -26 -100 -156 -129 -250 -14 -48 -33 -85
-51 -104 -28 -28 -29 -28 -116 -21 -48 4 -233 10 -412 13 -300 6 -328 9 -359
27 -133 79 -100 264 111 620 212 360 318 615 320 773 1 63 -3 78 -28 120 -21
33 -45 55 -81 75 -53 28 -67 31 -324 57 -243 24 -431 112 -590 274 -149 152
-220 348 -175 484 23 68 83 134 148 162 76 33 143 24 292 -37 l119 -48 39 -65
c43 -71 101 -136 162 -181 74 -55 93 -26 22 33 -54 46 -129 144 -168 221 -87
173 -92 437 -14 653 110 302 424 487 731 431 110 -20 182 -50 273 -110 93 -62
220 -181 237 -221 8 -19 11 -59 7 -119 -4 -74 -2 -89 9 -85 9 3 17 27 21 64
17 132 88 329 155 432 42 63 110 125 155 140 51 17 133 7 183 -22z m-1915
-866 c11 -6 21 -26 25 -52 3 -24 13 -67 21 -97 8 -29 14 -55 12 -57 -2 -1 -46
8 -98 21 -52 13 -119 27 -147 31 -29 3 -53 10 -53 14 0 10 149 134 170 143 24
9 50 8 70 -3z m1458 -2522 c37 -40 92 -141 92 -169 0 -14 -6 -32 -13 -38 -25
-20 -262 -100 -270 -92 -25 25 124 321 162 321 4 0 17 -10 29 -22z"/>
<path d="M2760 4595 c-18 -21 -6 -56 53 -163 70 -127 118 -172 147 -137 13 15
4 34 -92 208 -61 109 -80 125 -108 92z"/>
</g>
</svg>
